<svg xmlns="http://www.w3.org/2000/svg" width="50" height="50" fill="none"><path fill="#fff" d="M37.5 21.833V12.5a4.179 4.179 0 0 0-4.167-4.167h-25A4.179 4.179 0 0 0 4.167 12.5v25a4.179 4.179 0 0 0 4.166 4.167h25A4.179 4.179 0 0 0 37.5 37.5v-9.333l8.333 8.291V13.542L37.5 21.833ZM33.333 37.5h-25v-25h25v25Z"/><path fill="#fff" d="M20.833 25a4.167 4.167 0 1 0 0-8.333 4.167 4.167 0 0 0 0 8.333Zm8.334 7.146c0-1.688-1-3.188-2.542-3.854a14.479 14.479 0 0 0-11.583 0 4.188 4.188 0 0 0-2.542 3.854v1.187h16.667v-1.187Z"/></svg>