<svg xmlns="http://www.w3.org/2000/svg" id="Layer_1" version="1.1" viewBox="0 0 202 67"><defs><style>.st1{fill:#fff}</style></defs><path d="M0 31.2h4.5L7 33.9c1.8-2.2 4.6-3.4 7.8-3.4s6.3 1.3 8.1 3.6c1.9-2.3 4.9-3.6 8.3-3.6 6.5 0 10.8 4.4 10.8 11.3V56h-9V42.7c0-2.8-1.5-4.4-3.9-4.4s-3.9 1.6-3.9 4.4V56h-8.5V42.7c0-2.8-1.5-4.4-3.9-4.4s-3.9 1.6-3.9 4.4V56H0V31.2Zm43.9 12.4c0-7.6 5-12.9 12.1-12.9s6.3 1.2 8.4 3.3l2.3-2.7h4.9v24.8h-4.9l-2.3-2.8c-2.1 2.1-5 3.3-8.4 3.3-7.1 0-12.1-5.4-12.1-12.9ZM58 49c3.1 0 5.2-2.1 5.2-5.3s-2-5.3-5.2-5.3-5.2 2.1-5.2 5.3 2 5.3 5.2 5.3Zm47.3-17.8h4.5l2.6 2.8c1.9-2.2 4.7-3.4 8.1-3.4 6.5 0 10.8 4.4 10.8 11.3v14.2h-9V42.8c0-2.8-1.5-4.4-4-4.4s-4 1.6-4 4.4v13.3h-9V31.3Zm76.1 0v7.4h3.5V56h9V31.2h-12.5Zm-84.6 0-2.2 2.7c-2.1-2.1-5.1-3.3-8.5-3.3-7.2 0-12.1 5.2-12.1 12.7S78.8 56 85.7 56s5.4-.9 7.4-2.5v.7c0 3.3-2.7 5.1-7.5 5.1s-3.2-.2-4.9-.6v7.2c2 .4 4 .6 6 .6 9.5 0 14.9-4.7 14.9-13V31.2h-4.8ZM88 48.8c-3.1 0-5.1-2.1-5.1-5.3s2-5.2 5.1-5.2 5.1 2.1 5.1 5.2-2 5.3-5.1 5.3Zm86.4-3.2v-7h4.2v-7.4h-4.2v-6.4H171l-10.2 10.6v3.8h4.6v7.9c0 6.3 3.2 9.4 9.8 9.4s3.8-.3 5.9-.8v-7.3c-1.1.4-2.2.5-3.2.5-2.4 0-3.4-1-3.4-3.3Zm-16.8 2.8c-2.7.9-5.3 1.4-7.8 1.4-4 0-6.6-1.2-7.5-3.2h18.1c1.5-9-4.1-15.9-13.5-15.9s-13.7 5.4-13.7 13 6.1 13 15.4 13 5.8-.5 9-1.5v-6.8ZM147 37.5c2.5 0 4.2 1.3 4.8 3.7H142c.6-2.3 2.4-3.7 4.9-3.7Z" class="st1"/><path d="M189.3 0h-.2v8.7h.2c2.4 0 4.4 1.9 4.4 4.2s-1.9 4.2-4.4 4.2h-.2v8.7h.2c7 0 12.7-5.8 12.7-12.9S196.3 0 189.3 0Z" style="fill:#fff;fill-rule:evenodd"/><path d="M185.7 3.5c.9 0 1.6-.7 1.6-1.7s-.7-1.7-1.6-1.7-1.6.7-1.6 1.7.7 1.7 1.6 1.7Zm-.2 5.6c.9 0 1.6-.7 1.6-1.7s-.7-1.7-1.6-1.7-1.6.7-1.6 1.7.7 1.7 1.6 1.7Zm-4.7-2.6c.9 0 1.6-.7 1.6-1.7s-.7-1.7-1.6-1.7-1.6.7-1.6 1.7.7 1.7 1.6 1.7Zm-2.9 4.9c.9 0 1.6-.7 1.6-1.7s-.7-1.7-1.6-1.7-1.6.7-1.6 1.7.7 1.7 1.6 1.7Zm7.8 13.9c.9 0 1.6-.7 1.6-1.7s-.7-1.7-1.6-1.7-1.6.7-1.6 1.7.7 1.7 1.6 1.7Zm-.2-5.4c.9 0 1.6-.7 1.6-1.7s-.7-1.7-1.6-1.7-1.6.7-1.6 1.7.7 1.7 1.6 1.7Zm-4.7 2.4c.9 0 1.6-.7 1.6-1.7s-.7-1.7-1.6-1.7-1.6.7-1.6 1.7.7 1.7 1.6 1.7Zm-2.9-4.9c.9 0 1.6-.7 1.6-1.7s-.7-1.7-1.6-1.7-1.6.7-1.6 1.7.7 1.7 1.6 1.7Zm4.7-3c.9 0 1.6-.7 1.6-1.7s-.7-1.7-1.6-1.7-1.6.7-1.6 1.7.7 1.7 1.6 1.7Z" class="st1"/></svg>