<svg xmlns="http://www.w3.org/2000/svg" id="Layer_2" data-name="Layer 2" viewBox="0 0 266.1 42.32"><defs><style>.cls-1{fill:#ff4310}.cls-2{fill:#006034}.cls-3{fill:#ef4136}</style></defs><g id="Layer_1-2" data-name="Layer 1"><path d="M63.98 31.33H51.75v-.8l1.51-1.04c.6-.4 1.08-1.08 1.08-1.83V7.1c0-.76-.48-1.43-1.08-1.83l-1.51-1.04v-.8h12.23c17.37 0 17.29 27.89 0 27.89Zm-.36-1.2c10.44 0 10.36-25.5-.08-25.5h-3.62v25.5h3.71Z" class="cls-2"/><path d="M97.36 18.26v1.2H84.01c-.36 4.86 1.71 10.4 6.85 10.4 2.39 0 4.14-.96 5.06-2.43l.8.52c-1.39 2.47-4.18 3.75-7.45 3.75-13.9 0-13.94-20.68-.16-20.68 4.1 0 8.01 2.67 8.25 7.25Zm-4.82 0c-.08-5.02-1.71-6.06-3.43-6.06-2.71 0-4.46 2.75-4.98 6.06h8.41Zm23.97 7.69c0 4.34-4.34 5.86-8.84 5.86s-7.21-1.24-8.29-2.55c-1.43-1.71-.52-3.87 1.04-3.87 1.23 0 1.71.72 2.67 2.03 1.12 1.51 2.31 3.15 5.5 3.15 2.47 0 4.54-.92 4.54-2.71 0-4.34-13.59-3.15-13.59-11.35 0-3.39 3.23-5.5 8.01-5.5 2.19 0 5.46.64 6.61 2.51 1.08 1.67.12 3.47-1.35 3.47-2.75 0-2.03-4.7-6.06-4.7-2.47 0-3.86 1.28-3.86 2.83 0 4.46 13.63 3.15 13.63 10.84Zm3.87-9.2c0-3.07-.08-3.71-1.87-3.78l-.72-.04v-.8l3.03-.72c4.18-1 4.74-.36 4.74 4.1v12.15c0 .76.48 1.43 1.08 1.83l1.51 1.04v.8h-10.36v-.8l1.51-1.04c.6-.4 1.08-1.08 1.08-1.83V16.74Zm2.24-8.05c-1.67 0-2.87-1.2-2.87-2.87s1.2-2.87 2.87-2.87 2.87 1.2 2.87 2.87-1.19 2.87-2.87 2.87Z" class="cls-2"/><path d="M143.12 41.13c4.1 0 4.5-9.88-.44-9.88s-12.75 10.64-15.3 8.09c-1.95-1.95 7.93-7.53 4.58-12.63a9.26 9.26 0 0 1-2.47-6.33c-.04-4.7 3.31-9.36 10.04-9.36.32 0 .6 0 .92.04 2.55-.24 5.42-5.18 8.49-5.18 2.11 0 2.71 1.27 2.71 2.39.04 2.39-2.63 2.39-3.86 1-.84-.92-3.07.76-5.26 2.11 4.74 1.16 7.09 5.06 7.05 9 0 4.54-3.27 9.16-9.76 9.28-4.02 0-6.41 2.31-7.85 4.14-.72.92-1.23 1.55-.8 1.99.8.8 3.03-1.43 5.86-3.35 1.95-1.35 4.62-2.59 6.85-2.59 10.12 0 10.12 12.47-.88 12.47-4.62 0-6.65-2.43-6.65-4.74 0-2.15 1.16-3.19 2.31-3.19 1.43 0 2.07 1.24 2.07 3.35s.6 3.39 2.39 3.39Zm1.28-20.64c.04-4.1-1.55-8.29-4.86-8.29s-4.9 4.18-4.86 8.29c.04 4.02 1.67 7.97 4.86 7.97s4.82-3.94 4.86-7.97Z" class="cls-2"/><path d="M153.53 16.75c0-3.07-.08-3.71-1.87-3.78l-.72-.04v-.8l3.03-.72c3.31-.8 4.38-.56 4.66 1.79 1.51-1.04 3.87-2.23 6.22-2.23 2.47 0 5.62 1 5.62 5.9v10.8c0 .76.48 1.43 1.08 1.83l1.51 1.04v.8H162.7v-.8l1.51-1.04c.6-.4 1.08-1.08 1.08-1.83V17.35c0-2.99-.24-4.58-2.39-4.58-1.39 0-3.07 1.04-4.18 1.83v13.07c0 .76.48 1.43 1.08 1.83l1.51 1.04v.8h-10.36v-.8l1.51-1.04c.6-.4 1.08-1.08 1.08-1.83V16.75Zm54.75-13.31v.8l-1.51 1.04c-.6.4-1.08 1.08-1.08 1.83v20.56c0 .76.48 1.43 1.08 1.83l1.51 1.04v.8h-10.76v-.8l1.51-1.04c.6-.4 1.08-1.08 1.08-1.83V6.79l-7.97 20.88h-1.28l-7.89-20.24v20.24c0 .76.44 1.47 1.08 1.83l1.91 1.04v.8h-7.17v-.8l1.91-1.04c.64-.36 1.08-1.08 1.08-1.83V7.1c0-.76-.44-1.47-1.08-1.83l-1.91-1.04v-.8h8.65l6.37 16.49 6.29-16.49h8.17Zm3.99 13.31c0-3.07-.08-3.71-1.87-3.78l-.72-.04v-.8l3.03-.72c4.18-1 4.74-.36 4.74 4.1v12.15c0 .76.48 1.43 1.08 1.83l1.51 1.04v.8h-10.36v-.8l1.51-1.04c.6-.4 1.08-1.08 1.08-1.83V16.74Zm2.23-8.05c-1.67 0-2.87-1.2-2.87-2.87s1.2-2.87 2.87-2.87 2.87 1.2 2.87 2.87-1.2 2.87-2.87 2.87Zm9.24 8.05c0-3.07-.08-3.71-1.87-3.78l-.72-.04v-.8l3.03-.72c3.31-.8 4.38-.56 4.66 1.79 1.51-1.04 3.86-2.23 6.21-2.23 2.47 0 5.62 1 5.62 5.9v10.8c0 .76.48 1.43 1.08 1.83l1.51 1.04v.8H232.9v-.8l1.51-1.04c.6-.4 1.08-1.08 1.08-1.83V17.35c0-2.99-.24-4.58-2.39-4.58-1.39 0-3.07 1.04-4.18 1.83v13.07c0 .76.48 1.43 1.08 1.83l1.51 1.04v.8h-10.36v-.8l1.51-1.04c.6-.4 1.08-1.08 1.08-1.83V16.75Z" class="cls-2"/><path d="M263.51 26.03c0 3.07.08 3.71 1.87 3.79l.72.04v.8l-3.03.72c-3.23.76-4.3.56-4.62-1.63-1.51.96-3.71 1.99-5.86 1.99-10.92 0-11.47-20.76 1.08-20.76 1.83 0 3.43.8 4.66 1.63V6.95c0-3.07-.08-3.71-1.87-3.78l-.72-.04v-.8l3.03-.72c4.18-1 4.74-.36 4.74 4.1v20.32Zm-5.18-11.91c-1.08-.8-2.27-1.43-3.55-1.43-7.09 0-6.89 17.25-.24 17.25 1.24 0 2.71-.8 3.79-1.55V14.13Z" class="cls-2"/><path d="M31.72 19.64h.01-.01ZM26.44.01V0v.01ZM27.59 0h-.01.01Zm-.01 0h.01-.01Zm4.15 14.47h-.01.01Z" class="cls-1"/><path d="M21.26 0v.01V0Z" class="cls-3"/><path d="M26.43.01V0Z" class="cls-1"/><path d="M21.26 0v.01Z" class="cls-3"/><path d="M22.26 24.92v6.71h.01c.06 1.38 1.19 2.47 2.58 2.47s2.52-1.1 2.58-2.47h.01v-6.71a.679.679 0 0 1 1.15-.48h.01l4.73 4.75c1.01.92 2.59.9 3.57-.08s1-2.56.07-3.57-4.75-4.75-4.75-4.75a.648.648 0 0 1-.19-.47c0-.37.3-.67.67-.68h6.71c1.38-.07 2.47-1.2 2.47-2.59s-1.1-2.52-2.47-2.58-6.7-.01-6.7-.01h-.01a.679.679 0 0 1-.48-1.15l4.75-4.75c.93-1.02.91-2.6-.07-3.58s-2.56-1-3.57-.07-4.73 4.73-4.73 4.73h-.01c-.12.12-.28.19-.47.19-.37 0-.67-.3-.68-.67V2.47h-.01C27.37 1.09 26.24 0 24.85 0s-2.52 1.1-2.58 2.47h-.01v22.45ZM19.64 9.18V2.47h-.01C19.57 1.09 18.44 0 17.05 0s-2.52 1.1-2.58 2.47h-.01v6.71a.679.679 0 0 1-1.15.48h-.01L8.57 4.91c-1.01-.92-2.59-.9-3.57.08s-1 2.56-.07 3.57 4.75 4.75 4.75 4.75c.12.12.19.28.19.47 0 .37-.3.67-.67.68H2.47C1.09 14.53 0 15.66 0 17.05s1.1 2.52 2.47 2.58 6.7.01 6.7.01h.01a.679.679 0 0 1 .48 1.15l-4.75 4.75c-.93 1.02-.91 2.6.07 3.58s2.56 1 3.57.07 4.73-4.73 4.73-4.73h.01c.12-.12.28-.19.47-.19.37 0 .67.3.68.67v6.71h.01c.06 1.38 1.19 2.47 2.58 2.47s2.52-1.1 2.58-2.47h.01V9.2Z" class="cls-1"/></g></svg>