<svg xmlns="http://www.w3.org/2000/svg" width="364" height="292" fill="none"><rect width="172.654" height="227.553" x=".398" y=".398" fill="#fff" stroke="#989898" stroke-width=".796" rx="12.332"/><rect width="136.85" height="11.139" x="18.3" y="63.651" fill="#EFEFEF" rx="5.569"/><rect width="136.85" height="36.599" x="18.3" y="159.128" fill="#006034" rx="4.774"/><rect width="84.338" height="11.139" x="18.3" y="86.725" fill="#EFEFEF" rx="5.569"/><rect width="31.826" height="11.139" x="37.395" y="117.755" fill="#EFEFEF" rx="5.569"/><circle cx="24.665" cy="123.324" r="6.365" fill="#FF4310"/><path fill="#000" d="M24.624 45.844v-19.53h1.251v19.53h-1.251Zm3.914-13.472c-.082-.723-.418-1.282-1.008-1.679-.59-.401-1.332-.602-2.227-.602-.64 0-1.195.101-1.663.305-.468.198-.832.473-1.091.824-.254.346-.381.74-.381 1.182 0 .371.086.692.259.961.178.27.41.496.694.68.29.177.6.327.93.45.331.116.65.213.954.29l1.526.396c.498.122 1.01.287 1.534.496a6.15 6.15 0 0 1 1.457.824c.447.34.808.763 1.083 1.266.28.504.42 1.106.42 1.808 0 .885-.23 1.67-.687 2.357-.453.687-1.111 1.229-1.976 1.625-.86.397-1.9.595-3.12.595-1.17 0-2.182-.185-3.036-.556-.855-.372-1.523-.898-2.007-1.58-.483-.686-.75-1.5-.8-2.44h2.364c.046.564.23 1.034.55 1.41.325.372.74.649 1.243.832a5.027 5.027 0 0 0 1.67.267c.667 0 1.26-.104 1.778-.313.524-.213.936-.508 1.236-.885.3-.381.45-.826.45-1.335 0-.462-.132-.841-.397-1.136-.259-.295-.613-.54-1.06-.733a10.364 10.364 0 0 0-1.503-.51l-1.846-.504c-1.251-.341-2.243-.842-2.975-1.503-.727-.661-1.091-1.536-1.091-2.624 0-.9.244-1.686.732-2.358.488-.671 1.15-1.192 1.984-1.564.834-.376 1.775-.564 2.822-.564 1.058 0 1.991.186 2.8.557.814.371 1.455.882 1.922 1.533.468.646.713 1.389.733 2.228h-2.273ZM39.526 43.89V28.268h5.57c1.215 0 2.222.22 3.02.663.799.443 1.396 1.048 1.793 1.816.397.763.595 1.622.595 2.578 0 .961-.2 1.826-.602 2.594-.397.763-.997 1.368-1.8 1.816-.8.442-1.804.663-3.014.663h-3.83V36.4h3.616c.768 0 1.391-.133 1.87-.397.477-.27.828-.636 1.052-1.099.224-.462.336-.989.336-1.579s-.112-1.114-.336-1.571a2.407 2.407 0 0 0-1.06-1.076c-.478-.26-1.11-.389-1.892-.389h-2.96v13.602h-2.358Zm15.84-15.623V43.89h-2.281V28.268h2.28Zm6.478 15.882c-.742 0-1.414-.137-2.014-.412a3.393 3.393 0 0 1-1.426-1.212c-.346-.53-.52-1.178-.52-1.946 0-.661.128-1.205.382-1.632a2.815 2.815 0 0 1 1.03-1.015c.432-.25.916-.437 1.45-.565a14.393 14.393 0 0 1 1.632-.29c.702-.08 1.272-.147 1.709-.198.437-.056.755-.145.954-.267.198-.122.297-.32.297-.595v-.053c0-.666-.188-1.183-.564-1.549-.372-.366-.926-.55-1.663-.55-.768 0-1.374.171-1.816.512-.438.336-.74.71-.908 1.121l-2.144-.488c.255-.712.626-1.287 1.114-1.724a4.516 4.516 0 0 1 1.701-.961 6.64 6.64 0 0 1 2.022-.305c.468 0 .964.056 1.488.168a4.355 4.355 0 0 1 1.48.595c.462.29.841.704 1.136 1.243.295.534.443 1.228.443 2.083v7.781h-2.228v-1.602h-.091a3.246 3.246 0 0 1-.664.87c-.295.284-.674.52-1.137.71-.463.187-1.017.281-1.663.281Zm.496-1.83c.63 0 1.17-.125 1.617-.374a2.62 2.62 0 0 0 1.03-.977c.24-.407.359-.842.359-1.304v-1.51c-.082.08-.24.157-.473.228a7.48 7.48 0 0 1-.786.176c-.295.045-.582.089-.862.13l-.702.09c-.442.057-.847.15-1.213.283a2.082 2.082 0 0 0-.87.572c-.213.244-.32.57-.32.977 0 .564.209.991.626 1.281.417.285.948.427 1.594.427Zm10.606-5.386v6.957h-2.281V32.173h2.19v1.907h.144a3.35 3.35 0 0 1 1.267-1.495c.58-.376 1.31-.564 2.189-.564.798 0 1.498.168 2.098.503.6.33 1.065.824 1.396 1.48.33.656.496 1.468.496 2.434v7.453h-2.281v-7.179c0-.849-.222-1.513-.664-1.99-.442-.484-1.05-.725-1.823-.725-.53 0-1 .114-1.412.343-.406.229-.73.564-.968 1.007-.234.437-.351.966-.351 1.587Zm17.746 6.957H88.19l5.622-15.623h2.724l5.622 15.623h-2.502l-4.417-12.786h-.123L90.692 43.89Zm.42-6.118h8.116v1.983h-8.116v-1.983Z"/><path fill="#fff" d="M65.323 175.703a1.153 1.153 0 0 0-.522-.87c-.306-.209-.691-.313-1.156-.313-.332 0-.62.053-.862.158a1.33 1.33 0 0 0-.566.428 1.006 1.006 0 0 0-.197.613.9.9 0 0 0 .134.498c.092.14.212.257.36.352.15.092.311.17.483.233.171.061.336.111.494.151l.791.205c.259.064.524.149.795.258.272.108.524.25.756.427.232.176.42.395.562.656.145.262.217.574.217.938 0 .459-.118.866-.356 1.222-.235.356-.576.637-1.024.843-.446.205-.985.308-1.618.308-.607 0-1.131-.096-1.575-.288a2.431 2.431 0 0 1-1.04-.819 2.375 2.375 0 0 1-.415-1.266h1.226c.024.293.119.537.285.732.169.192.383.336.645.431.263.092.552.138.866.138.345 0 .653-.054.922-.162.271-.111.485-.264.64-.459.156-.198.234-.428.234-.692a.848.848 0 0 0-.206-.589 1.517 1.517 0 0 0-.55-.38c-.23-.1-.489-.189-.779-.265l-.957-.261c-.649-.177-1.163-.437-1.543-.779-.377-.343-.566-.797-.566-1.361 0-.467.127-.874.38-1.222a2.483 2.483 0 0 1 1.029-.811 3.52 3.52 0 0 1 1.463-.293c.549 0 1.032.096 1.452.289.422.192.754.457.997.795.242.335.369.72.38 1.155h-1.18Zm5.491-.103v.949h-3.319v-.949h3.319Zm-2.429-1.456h1.183v5.748c0 .229.034.402.103.518a.537.537 0 0 0 .265.233c.11.04.23.06.36.06.095 0 .178-.007.249-.02l.166-.032.214.977a2.339 2.339 0 0 1-.767.127 2.087 2.087 0 0 1-.87-.166 1.497 1.497 0 0 1-.654-.538c-.166-.243-.249-.547-.249-.914v-5.993Zm5.505 7.666c-.385 0-.733-.071-1.044-.213a1.76 1.76 0 0 1-.74-.629c-.179-.275-.268-.611-.268-1.009 0-.343.065-.625.197-.846.132-.222.31-.397.534-.527.224-.129.475-.226.752-.292.277-.066.559-.116.846-.151l.886-.102c.227-.029.392-.076.495-.139.103-.063.154-.166.154-.308v-.028c0-.346-.097-.613-.293-.803-.192-.19-.48-.285-.862-.285-.398 0-.712.088-.941.265a1.417 1.417 0 0 0-.471.582l-1.112-.254c.132-.369.325-.667.578-.894a2.35 2.35 0 0 1 .882-.498 3.459 3.459 0 0 1 1.048-.158c.243 0 .5.029.772.087.274.055.53.158.767.308.24.151.436.366.59.645.152.277.229.637.229 1.08v4.035h-1.155v-.831h-.048a1.687 1.687 0 0 1-.344.451 1.83 1.83 0 0 1-.59.368c-.24.097-.527.146-.862.146Zm.258-.949a1.7 1.7 0 0 0 .838-.194c.235-.129.413-.298.534-.506.124-.211.186-.437.186-.677v-.783a.62.62 0 0 1-.245.119 4.055 4.055 0 0 1-.408.091 38.23 38.23 0 0 1-.447.067c-.145.019-.266.034-.363.048a2.91 2.91 0 0 0-.63.146 1.068 1.068 0 0 0-.45.297c-.111.126-.166.295-.166.506 0 .293.108.514.324.664.216.148.492.222.827.222Zm4.316.815V175.6h1.143v.965h.064a1.46 1.46 0 0 1 .585-.771c.282-.19.601-.285.957-.285a5.395 5.395 0 0 1 .503.028v1.131a2.168 2.168 0 0 0-.254-.044 2.476 2.476 0 0 0-.364-.027c-.279 0-.528.059-.747.178a1.324 1.324 0 0 0-.704 1.19v3.711h-1.183Zm7.47-6.076v.949h-3.319v-.949h3.32Zm-2.428-1.456h1.182v5.748c0 .229.034.402.103.518a.537.537 0 0 0 .265.233c.11.04.23.06.36.06.095 0 .178-.007.25-.02a8.75 8.75 0 0 0 .165-.032l.214.977a2.339 2.339 0 0 1-.767.127 2.087 2.087 0 0 1-.87-.166 1.497 1.497 0 0 1-.653-.538c-.166-.243-.25-.547-.25-.914v-5.993Zm13.318-.569v8.101h-1.123l-4.118-5.942h-.075v5.942h-1.223v-8.101h1.132l4.121 5.949h.076v-5.949h1.21Zm4.247 8.223c-.569 0-1.066-.13-1.49-.391a2.643 2.643 0 0 1-.99-1.096c-.234-.469-.352-1.018-.352-1.645 0-.631.117-1.182.352-1.654s.565-.838.99-1.1c.424-.261.921-.391 1.49-.391.57 0 1.067.13 1.492.391.424.262.754.628.989 1.1.234.472.352 1.023.352 1.654 0 .627-.118 1.176-.352 1.645a2.65 2.65 0 0 1-.989 1.096c-.425.261-.922.391-1.492.391Zm.004-.992c.369 0 .675-.098.918-.293.243-.195.422-.455.538-.779.119-.325.178-.682.178-1.072 0-.388-.059-.744-.178-1.068a1.74 1.74 0 0 0-.538-.788c-.243-.197-.549-.296-.918-.296-.372 0-.68.099-.925.296a1.77 1.77 0 0 0-.542.788c-.116.324-.174.68-.174 1.068 0 .39.058.747.174 1.072.118.324.3.584.542.779.245.195.553.293.925.293Zm5.281.87-1.788-6.076h1.222l1.191 4.462h.059l1.195-4.462h1.222l1.187 4.442h.059l1.183-4.442h1.222l-1.784 6.076h-1.206l-1.234-4.387h-.091l-1.234 4.387h-1.203Z"/><rect width="172.654" height="291.204" x="190.556" y=".398" fill="#fff" stroke="#989898" stroke-width=".796" rx="12.332"/><rect width="136.85" height="11.139" x="208.458" y="63.651" fill="#EFEFEF" rx="5.569"/><rect width="136.85" height="36.599" x="208.458" y="218.801" fill="#006034" rx="4.774"/><rect width="84.338" height="11.139" x="208.458" y="86.725" fill="#EFEFEF" rx="5.569"/><rect width="31.826" height="11.139" x="227.553" y="117.755" fill="#EFEFEF" rx="5.569"/><circle cx="214.823" cy="123.324" r="6.365" fill="#FF4310"/><rect width="42.169" height="11.139" x="227.553" y="137.646" fill="#EFEFEF" rx="5.569"/><circle cx="214.823" cy="143.215" r="6.365" fill="#FF4310"/><rect width="31.826" height="11.139" x="227.553" y="158.332" fill="#EFEFEF" rx="5.569"/><circle cx="214.823" cy="163.902" r="6.365" fill="#FF4310"/><rect width="49.33" height="11.139" x="227.553" y="178.223" fill="#EFEFEF" rx="5.569"/><circle cx="214.823" cy="183.793" r="6.365" fill="#FF4310"/><path fill="#000" d="M214.782 45.844v-19.53h1.251v19.53h-1.251Zm3.913-13.472c-.081-.723-.417-1.282-1.007-1.679-.59-.401-1.332-.602-2.227-.602-.641 0-1.195.101-1.663.305-.468.198-.832.473-1.091.824-.254.346-.382.74-.382 1.182 0 .371.087.692.26.961.178.27.409.496.694.68.29.177.6.327.931.45.33.116.648.213.953.29l1.526.396c.498.122 1.01.287 1.533.496a6.16 6.16 0 0 1 1.458.824c.447.34.808.763 1.083 1.266.28.504.419 1.106.419 1.808 0 .885-.229 1.67-.686 2.357-.453.687-1.111 1.229-1.976 1.625-.86.397-1.9.595-3.12.595-1.17 0-2.182-.185-3.036-.556-.855-.372-1.524-.898-2.007-1.58-.483-.686-.75-1.5-.801-2.44h2.365c.046.564.229 1.034.549 1.41.326.372.74.649 1.244.832a5.023 5.023 0 0 0 1.671.267c.666 0 1.258-.104 1.777-.313.524-.213.936-.508 1.236-.885.3-.381.45-.826.45-1.335 0-.462-.132-.841-.397-1.136-.259-.295-.613-.54-1.06-.733a10.361 10.361 0 0 0-1.503-.51l-1.846-.504c-1.251-.341-2.243-.842-2.975-1.503-.728-.661-1.091-1.536-1.091-2.624 0-.9.244-1.686.732-2.358.488-.671 1.15-1.192 1.984-1.564.834-.376 1.775-.564 2.822-.564 1.058 0 1.991.186 2.8.557.814.371 1.455.882 1.922 1.533.468.646.712 1.389.733 2.228h-2.274Zm10.989 11.519V28.268h5.569c1.216 0 2.223.22 3.021.663.799.443 1.396 1.048 1.793 1.816.397.763.595 1.622.595 2.578 0 .961-.201 1.826-.603 2.594-.396.763-.996 1.368-1.8 1.816-.798.442-1.803.663-3.013.663h-3.83V36.4h3.616c.768 0 1.391-.133 1.869-.397.478-.27.829-.636 1.053-1.099.224-.462.336-.989.336-1.579s-.112-1.114-.336-1.571a2.408 2.408 0 0 0-1.06-1.076c-.478-.26-1.109-.389-1.892-.389h-2.96v13.602h-2.358Zm15.839-15.623V43.89h-2.28V28.268h2.28Zm6.479 15.882c-.742 0-1.414-.137-2.014-.412a3.392 3.392 0 0 1-1.426-1.212c-.346-.53-.519-1.178-.519-1.946 0-.661.127-1.205.381-1.632a2.823 2.823 0 0 1 1.03-1.015c.432-.25.916-.437 1.45-.565a14.399 14.399 0 0 1 1.632-.29c.702-.08 1.272-.147 1.709-.198.437-.056.755-.145.954-.267.198-.122.297-.32.297-.595v-.053c0-.666-.188-1.183-.564-1.549-.372-.366-.926-.55-1.664-.55-.767 0-1.373.171-1.815.512-.438.336-.74.71-.908 1.121l-2.144-.488c.255-.712.626-1.287 1.114-1.724a4.527 4.527 0 0 1 1.701-.961 6.642 6.642 0 0 1 2.022-.305c.468 0 .964.056 1.488.168a4.364 4.364 0 0 1 1.48.595c.462.29.841.704 1.136 1.243.295.534.443 1.228.443 2.083v7.781h-2.228v-1.602h-.091a3.258 3.258 0 0 1-.664.87c-.295.284-.674.52-1.137.71-.463.187-1.017.281-1.663.281Zm.496-1.83c.631 0 1.17-.125 1.617-.374a2.62 2.62 0 0 0 1.03-.977c.239-.407.359-.842.359-1.304v-1.51c-.082.08-.239.157-.473.228a7.381 7.381 0 0 1-.786.176c-.295.045-.582.089-.862.13l-.702.09c-.442.057-.847.15-1.213.283a2.086 2.086 0 0 0-.87.572c-.213.244-.32.57-.32.977 0 .564.209.991.626 1.281.417.285.948.427 1.594.427Zm10.606-5.386v6.957h-2.281V32.173h2.189v1.907h.145c.27-.62.692-1.118 1.266-1.495.58-.376 1.31-.564 2.19-.564.798 0 1.498.168 2.098.503.6.33 1.065.824 1.396 1.48.33.656.496 1.468.496 2.434v7.453h-2.281v-7.179c0-.849-.222-1.513-.664-1.99-.442-.484-1.05-.725-1.823-.725-.529 0-1 .114-1.412.343a2.472 2.472 0 0 0-.968 1.007c-.234.437-.351.966-.351 1.587Zm16.426 6.957V28.268h5.722c1.108 0 2.026.183 2.754.549.727.36 1.271.852 1.632 1.472.361.615.542 1.31.542 2.083 0 .65-.12 1.2-.359 1.648a2.949 2.949 0 0 1-.961 1.067 4.238 4.238 0 0 1-1.312.58v.153c.519.025 1.025.193 1.518.503.498.306.91.74 1.236 1.305.325.564.488 1.251.488 2.06 0 .798-.188 1.515-.565 2.15-.371.631-.945 1.133-1.724 1.504-.778.366-1.772.549-2.982.549h-5.989Zm2.357-2.022h3.403c1.129 0 1.937-.218 2.426-.656a2.11 2.11 0 0 0 .732-1.64c0-.493-.125-.946-.374-1.358a2.668 2.668 0 0 0-1.068-.984c-.458-.244-1.002-.366-1.632-.366h-3.487v5.004Zm0-6.843h3.159a3.24 3.24 0 0 0 1.426-.305 2.497 2.497 0 0 0 1.015-.854c.254-.371.381-.809.381-1.312 0-.646-.226-1.188-.679-1.625-.452-.438-1.147-.656-2.082-.656h-3.22v4.752Z"/><path fill="#fff" d="M255.481 235.376a1.156 1.156 0 0 0-.523-.87c-.305-.209-.69-.313-1.155-.313a2.16 2.16 0 0 0-.862.158 1.332 1.332 0 0 0-.566.428 1.011 1.011 0 0 0-.197.613.9.9 0 0 0 .134.498c.092.14.212.257.36.352.15.092.311.17.483.233.171.061.336.111.494.151l.791.205c.259.064.524.149.795.258.272.108.524.25.756.427.232.176.419.395.562.656.145.261.217.574.217.938 0 .459-.119.866-.356 1.222-.235.356-.576.637-1.024.843-.446.205-.985.308-1.618.308-.607 0-1.132-.096-1.575-.289a2.424 2.424 0 0 1-1.04-.818 2.375 2.375 0 0 1-.415-1.266h1.226c.024.293.119.537.285.732.169.192.384.336.645.431.263.092.552.138.866.138.345 0 .653-.054.922-.162.271-.111.485-.264.64-.459.156-.198.234-.428.234-.692a.85.85 0 0 0-.206-.589 1.514 1.514 0 0 0-.55-.38 5.324 5.324 0 0 0-.779-.265l-.957-.261c-.649-.177-1.163-.437-1.543-.779-.377-.343-.566-.797-.566-1.361 0-.467.127-.874.38-1.222a2.48 2.48 0 0 1 1.029-.811 3.52 3.52 0 0 1 1.463-.293c.549 0 1.033.096 1.452.289.422.192.754.457.997.795.242.335.369.72.379 1.155h-1.178Zm5.491-.103v.949h-3.319v-.949h3.319Zm-2.429-1.456h1.183v5.748c0 .229.034.402.103.518a.535.535 0 0 0 .265.233c.111.04.231.06.36.06.095 0 .178-.007.249-.02a8.13 8.13 0 0 0 .166-.032l.214.977a2.344 2.344 0 0 1-.768.127 2.087 2.087 0 0 1-.87-.166 1.502 1.502 0 0 1-.653-.538c-.166-.243-.249-.547-.249-.914v-5.993Zm5.505 7.666c-.385 0-.733-.071-1.044-.213a1.763 1.763 0 0 1-.74-.629c-.179-.275-.269-.611-.269-1.009 0-.343.066-.625.198-.846.132-.222.31-.397.534-.527.224-.129.475-.226.752-.292.277-.066.559-.116.846-.151l.886-.102c.227-.029.392-.076.495-.139.103-.063.154-.166.154-.308v-.028c0-.346-.098-.613-.293-.803-.192-.19-.48-.285-.862-.285-.398 0-.712.088-.941.265a1.415 1.415 0 0 0-.471.582l-1.112-.254c.132-.369.325-.667.578-.894.256-.229.55-.395.882-.498a3.458 3.458 0 0 1 1.048-.158c.243 0 .5.029.772.087.274.055.53.158.767.308.24.151.436.366.589.645.153.277.23.637.23 1.08v4.035h-1.155v-.831h-.048a1.676 1.676 0 0 1-.344.451c-.153.148-.349.27-.589.368-.24.097-.528.146-.863.146Zm.258-.949a1.7 1.7 0 0 0 .838-.194c.235-.129.413-.298.534-.506.124-.211.186-.437.186-.677v-.783a.619.619 0 0 1-.245.119 4.082 4.082 0 0 1-.408.091 38.23 38.23 0 0 1-.447.067c-.145.018-.266.034-.364.048a2.891 2.891 0 0 0-.628.146 1.06 1.06 0 0 0-.451.297c-.111.126-.167.295-.167.506 0 .293.109.514.325.664.216.148.492.222.827.222Zm4.316.815v-6.076h1.143v.965h.064a1.46 1.46 0 0 1 .585-.771c.282-.19.601-.285.957-.285a5.38 5.38 0 0 1 .503.028v1.131a2.187 2.187 0 0 0-.254-.044 2.467 2.467 0 0 0-.364-.027c-.279 0-.528.059-.747.178a1.32 1.32 0 0 0-.704 1.19v3.711h-1.183Zm7.47-6.076v.949h-3.319v-.949h3.319Zm-2.429-1.456h1.183v5.748c0 .229.034.402.103.518a.539.539 0 0 0 .265.233c.111.04.231.06.36.06.095 0 .178-.007.249-.02a8.13 8.13 0 0 0 .166-.032l.214.977a1.878 1.878 0 0 1-.293.079 2.334 2.334 0 0 1-.474.048 2.088 2.088 0 0 1-.871-.166 1.494 1.494 0 0 1-.652-.538c-.166-.243-.25-.547-.25-.914v-5.993Zm13.319-.569v8.101h-1.123l-4.118-5.942h-.075v5.942h-1.223v-8.101h1.132l4.121 5.949h.076v-5.949h1.21Zm4.247 8.223c-.569 0-1.066-.13-1.491-.391a2.643 2.643 0 0 1-.989-1.096c-.235-.469-.352-1.018-.352-1.645 0-.631.117-1.182.352-1.654s.564-.838.989-1.1c.425-.261.922-.391 1.491-.391.57 0 1.067.13 1.492.391.424.262.754.628.988 1.1.235.472.353 1.023.353 1.654 0 .627-.118 1.176-.353 1.645a2.64 2.64 0 0 1-.988 1.096c-.425.261-.922.391-1.492.391Zm.004-.992c.369 0 .675-.098.918-.293.243-.195.422-.455.538-.779.119-.325.178-.682.178-1.072 0-.388-.059-.744-.178-1.068a1.74 1.74 0 0 0-.538-.788c-.243-.197-.549-.296-.918-.296-.372 0-.68.099-.925.296a1.763 1.763 0 0 0-.542.788c-.116.324-.174.68-.174 1.068 0 .39.058.747.174 1.072.118.324.299.584.542.779.245.195.553.293.925.293Zm5.281.87-1.788-6.076h1.222l1.191 4.462h.059l1.195-4.462h1.222l1.187 4.442h.059l1.183-4.442h1.222l-1.784 6.076h-1.206l-1.234-4.387h-.091l-1.235 4.387h-1.202Z"/></svg>