<svg xmlns="http://www.w3.org/2000/svg" width="326" height="294" fill="none"><rect width="320.204" height="89.204" x=".398" y=".398" fill="#fff" stroke="#989898" stroke-width=".796" rx="12.332"/><rect width="79" height="74" x="8" y="8" fill="#F7F7F7" rx="6"/><rect width="320.204" height="89.204" x=".398" y="102.398" fill="#fff" stroke="#989898" stroke-width=".796" rx="12.332"/><rect width="79" height="74" x="8" y="110" fill="#F7F7F7" rx="6"/><rect width="320.204" height="89.204" x=".398" y="204.398" fill="#fff" stroke="#989898" stroke-width=".796" rx="12.332"/><rect width="79" height="74" x="8" y="212" fill="#F7F7F7" rx="6"/><rect width="89" height="11" x="95" y="34" fill="#EFEFEF" rx="5.5"/><rect width="73" height="11" x="95" y="136" fill="#EFEFEF" rx="5.5"/><rect width="79" height="11" x="95" y="238" fill="#EFEFEF" rx="5.5"/><rect width="63" height="11" x="95" y="50" fill="#EFEFEF" rx="5.5"/><rect width="86" height="11" x="95" y="152" fill="#EFEFEF" rx="5.5"/><rect width="63" height="11" x="95" y="254" fill="#EFEFEF" rx="5.5"/><rect width="103" height="37" x="206" y="27" fill="#006034" rx="18.5"/><path fill="#fff" d="M234.099 41.899V50h-1.222v-8.101h1.222Zm2.868 4.493V50h-1.183v-6.076h1.136v.99h.075c.14-.323.359-.581.657-.776.3-.195.679-.293 1.135-.293.414 0 .776.087 1.088.261.311.172.552.427.723.767.172.34.258.761.258 1.262V50h-1.183v-3.722c0-.44-.115-.785-.344-1.033-.23-.25-.545-.375-.946-.375-.274 0-.518.059-.731.178a1.282 1.282 0 0 0-.503.522 1.728 1.728 0 0 0-.182.822ZM245.485 50v-8.101h2.887c.628 0 1.149.108 1.563.324.416.217.727.516.933.898.206.38.309.819.309 1.317 0 .496-.104.933-.313 1.31a2.1 2.1 0 0 1-.933.874c-.414.208-.935.312-1.563.312h-2.187v-1.052h2.076c.396 0 .718-.056.966-.17.25-.113.433-.278.549-.494a1.62 1.62 0 0 0 .175-.78c0-.306-.06-.57-.178-.795a1.157 1.157 0 0 0-.55-.514c-.248-.121-.574-.182-.977-.182h-1.535V50h-1.222Zm3.999-3.655L251.485 50h-1.392l-1.962-3.655h1.353Zm5.628 3.778c-.599 0-1.115-.128-1.547-.384a2.604 2.604 0 0 1-.997-1.088c-.232-.47-.348-1.02-.348-1.65 0-.622.116-1.17.348-1.645.235-.474.562-.845.981-1.111.422-.267.915-.4 1.479-.4.343 0 .676.057.997.17.322.114.611.292.867.534.255.243.457.558.605.946.147.385.221.853.221 1.404v.42h-4.83v-.887h3.671c0-.311-.063-.587-.19-.827a1.427 1.427 0 0 0-.534-.573 1.49 1.49 0 0 0-.799-.21c-.332 0-.622.082-.87.245a1.644 1.644 0 0 0-.569.633 1.83 1.83 0 0 0-.198.843v.692c0 .406.071.752.213 1.036.145.285.347.503.606.653.258.148.56.222.905.222.225 0 .429-.032.614-.095a1.276 1.276 0 0 0 .787-.771l1.119.201c-.09.33-.25.618-.482.866-.23.246-.519.437-.867.574a3.236 3.236 0 0 1-1.182.202Zm8.942-6.199L261.851 50h-1.266l-2.207-6.076h1.27l1.538 4.676h.064l1.534-4.676h1.27ZM265.166 50v-6.076h1.182V50h-1.182Zm.597-7.013a.751.751 0 0 1-.53-.206.67.67 0 0 1-.218-.498.66.66 0 0 1 .218-.499.744.744 0 0 1 .53-.21.73.73 0 0 1 .526.21.655.655 0 0 1 .222.499.663.663 0 0 1-.222.498.737.737 0 0 1-.526.206Zm4.795 7.136c-.598 0-1.114-.128-1.546-.384a2.597 2.597 0 0 1-.997-1.088c-.232-.47-.348-1.02-.348-1.65 0-.622.116-1.17.348-1.645.234-.474.561-.845.981-1.111.422-.267.915-.4 1.479-.4.343 0 .675.057.997.17.322.114.61.292.866.534a2.5 2.5 0 0 1 .605.946c.148.385.222.853.222 1.404v.42h-4.83v-.887h3.671c0-.311-.063-.587-.19-.827a1.441 1.441 0 0 0-1.333-.783c-.332 0-.622.082-.87.245a1.655 1.655 0 0 0-.57.633 1.83 1.83 0 0 0-.198.843v.692c0 .406.072.752.214 1.036.145.285.347.503.605.653.259.148.561.222.906.222.224 0 .429-.032.613-.095a1.274 1.274 0 0 0 .787-.771l1.12.201a2.03 2.03 0 0 1-.483.866 2.334 2.334 0 0 1-.866.574c-.346.134-.74.202-1.183.202Zm5.225-.123-1.787-6.076h1.222l1.19 4.462h.06l1.194-4.462h1.223l1.186 4.442h.06l1.182-4.442h1.223L280.752 50h-1.207l-1.234-4.387h-.091L276.986 50h-1.203Z"/><rect width="37" height="37" x="239" y="129" fill="#006034" rx="18.5"/><rect width="37" height="37" x="239" y="228" fill="#006034" rx="18.5"/><path stroke="#fff" stroke-linecap="round" stroke-linejoin="round" stroke-width="2.25" d="m249.625 147.5 5.625 5.625 11.25-11.25M249.625 246.5l5.625 5.625 11.25-11.25"/><path fill="#FF4310" fill-rule="evenodd" d="M51.75 31.75h-3.167v3.167h3.167V31.75Zm12.667 12.667H61.25v3.166h3.167v-3.166Zm0 6.333H61.25v3.167h3.167V50.75Zm0 6.333H61.25v3.167c1.583 0 3.167-1.583 3.167-3.167Zm-3.167-19h3.167v3.167H61.25v-3.167Zm0-3.166V31.75c1.583 0 3.167 1.583 3.167 3.167H61.25Zm-31.667 3.166h3.167v3.167h-3.167v-3.167Zm28.5-6.333h-3.166v3.167h3.166V31.75Zm-3.166 25.333h3.166v3.167h-3.166v-3.167ZM29.583 34.917c0-1.584 1.584-3.167 3.167-3.167v3.167h-3.167ZM42.25 31.75h3.167v3.167H42.25V31.75Zm-3.167 0h-3.166v3.167h3.166V31.75Zm-9.5 12.667v12.666a3.176 3.176 0 0 0 3.167 3.167h19V44.417H29.583ZM36.708 52l-3.958 5.082h15.833l-5.082-6.776-3.959 5.098L36.708 52Z" clip-rule="evenodd"/><path fill="#FF4310" d="M42.688 138.188v4.124h6.874v16.5h4.126v-16.5h6.874v-4.124H42.689Zm-8.25 11h4.124v9.624h4.126v-9.624h4.124v-4.126H34.438v4.126ZM57.125 249.5h-2.75v4.125H50.25v2.75h6.875V249.5Zm-16.5-4.125h4.125v-2.75h-6.875v6.875h2.75v-4.125Zm19.25-8.25h-24.75a2.758 2.758 0 0 0-2.75 2.75v19.25a2.758 2.758 0 0 0 2.75 2.75h24.75a2.758 2.758 0 0 0 2.75-2.75v-19.25a2.758 2.758 0 0 0-2.75-2.75Zm0 22.014h-24.75v-19.278h24.75v19.278Z"/></svg>